<?xml version="1.0" standalone="no"?><!DOCTYPE svg PUBLIC "-//W3C//DTD SVG 1.1//EN" "http://www.w3.org/Graphics/SVG/1.1/DTD/svg11.dtd"><svg t="1685175148846" class="icon" viewBox="0 0 1024 1024" version="1.1" xmlns="http://www.w3.org/2000/svg" p-id="7609" data-spm-anchor-id="a313x.7781069.0.i3" xmlns:xlink="http://www.w3.org/1999/xlink" width="50" height="50"><path d="M329.142857 768H177.632653c-45.97551 0-83.591837-37.616327-83.591837-83.591837v-130.612245c0-164.04898 133.746939-297.795918 297.795919-297.795918 45.97551 0 83.591837 37.616327 83.591836 83.591837v282.122449c0 80.457143-65.828571 146.285714-146.285714 146.285714z m62.693878-470.204082c-141.061224 0-256 114.938776-256 256v130.612245c0 22.987755 18.808163 41.795918 41.795918 41.795919h151.510204c57.469388 0 104.489796-47.020408 104.489796-104.489796V339.591837c0-22.987755-18.808163-41.795918-41.795918-41.795919z" fill="#333333" p-id="7610"></path><path d="M846.367347 768h-151.510204c-80.457143 0-146.285714-65.828571-146.285714-146.285714V339.591837c0-45.97551 37.616327-83.591837 83.591836-83.591837 164.04898 0 297.795918 133.746939 297.795919 297.795918v130.612245c0 45.97551-37.616327 83.591837-83.591837 83.591837z m-214.204082-470.204082c-22.987755 0-41.795918 18.808163-41.795918 41.795919v282.122449c0 57.469388 47.020408 104.489796 104.489796 104.489796h151.510204c22.987755 0 41.795918-18.808163 41.795918-41.795919v-130.612245c0-141.061224-114.938776-256-256-256z" fill="#333333" p-id="7611"></path><path d="M729.861224 577.828571c-5.22449 0-10.44898-2.089796-14.628571-6.269387-111.804082-111.804082-294.138776-111.804082-406.465306 0-8.359184 8.359184-21.420408 8.359184-29.779592 0-8.359184-8.359184-8.359184-21.420408 0-29.779592 128.522449-128.522449 336.979592-128.522449 465.502041 0 8.359184 8.359184 8.359184 21.420408 0 29.779592-3.657143 4.179592-9.404082 6.269388-14.628572 6.269387z" fill="#333333" p-id="7612"></path></svg>